<svg width="351" height="351" viewBox="0 0 351 351" fill="none" xmlns="http://www.w3.org/2000/svg">
<circle cx="175.433" cy="175.433" r="175.433" fill="#377599"/>
<path d="M167.561 39.7274C165.528 40.7695 164.649 43.7799 164.649 43.7799V151.56C164.649 151.56 158.036 161.353 154.012 161.353C149.988 161.354 153.842 108.416 151.482 105.295C149.122 102.173 141.363 99.0162 119.925 113.906C98.4873 128.796 73.8261 163.626 70.8271 222.14C67.8282 280.654 75.0199 291.893 94.9474 285.798C114.875 279.702 147.954 262.192 152.835 253.547C157.716 244.901 164.649 177.615 164.649 177.615C164.649 177.615 165.47 170.702 171.274 169.728V107.374V38.6216C169.595 38.7224 168.354 39.3209 167.561 39.7274Z" fill="#BAC7FF"/>
<path d="M171.274 169.728C177.078 168.753 181.042 174.639 182.289 177.615C183.535 180.591 194.148 244.963 199.503 253.547C204.859 262.131 242.015 278.946 260.766 285.798C279.518 292.649 282.94 265.714 279.518 222.14C276.095 178.567 249.059 135.716 225.156 113.906C208.089 98.3335 199.635 101.868 196.482 105.295C193.328 108.721 198.982 163.244 194.101 161.353C189.219 159.463 182.289 151.56 182.289 151.56V43.7799C182.289 43.7799 180.872 40.8601 179.251 39.7274C178.262 39.0366 173.898 38.464 171.274 38.6216M171.274 169.728C165.47 170.702 164.649 177.615 164.649 177.615C164.649 177.615 157.716 244.901 152.835 253.547C147.954 262.192 114.875 279.702 94.9474 285.798C75.0199 291.893 67.8282 280.654 70.8271 222.14C73.8261 163.626 98.4873 128.796 119.925 113.906C141.363 99.0162 149.122 102.173 151.482 105.295C153.842 108.416 149.988 161.354 154.012 161.353C158.036 161.353 164.649 151.56 164.649 151.56V43.7799C164.649 43.7799 165.528 40.7695 167.561 39.7274C168.354 39.3209 169.595 38.7224 171.274 38.6216M171.274 169.728V107.374V38.6216" stroke="#BAC7FF" stroke-width="5.65912"/>
<mask id="path-4-inside-1_182_1116" fill="white">
<ellipse cx="301.348" cy="174.018" rx="7.07389" ry="7.07389"/>
</mask>
<ellipse cx="301.348" cy="174.018" rx="7.07389" ry="7.07389" fill="#BAC7FF"/>
<path d="M297.104 174.018C297.104 171.674 299.004 169.774 301.348 169.774V192.41C311.506 192.41 319.74 184.176 319.74 174.018H297.104ZM301.348 169.774C303.692 169.774 305.592 171.674 305.592 174.018H282.956C282.956 184.176 291.19 192.41 301.348 192.41V169.774ZM305.592 174.018C305.592 176.362 303.692 178.262 301.348 178.262V155.626C291.19 155.626 282.956 163.86 282.956 174.018H305.592ZM301.348 178.262C299.004 178.262 297.104 176.362 297.104 174.018H319.74C319.74 163.86 311.506 155.626 301.348 155.626V178.262Z" fill="#BAC7FF" mask="url(#path-4-inside-1_182_1116)"/>
<ellipse cx="224.95" cy="145.722" rx="7.07389" ry="7.07389" fill="#BAC7FF"/>
<mask id="path-7-inside-2_182_1116" fill="white">
<ellipse cx="256.075" cy="250.416" rx="7.07389" ry="7.07389"/>
</mask>
<ellipse cx="256.075" cy="250.416" rx="7.07389" ry="7.07389" fill="#BAC7FF"/>
<path d="M251.831 250.416C251.831 248.072 253.731 246.172 256.075 246.172V268.808C266.233 268.808 274.467 260.574 274.467 250.416H251.831ZM256.075 246.172C258.419 246.172 260.319 248.072 260.319 250.416H237.683C237.683 260.574 245.917 268.808 256.075 268.808V246.172ZM260.319 250.416C260.319 252.76 258.419 254.661 256.075 254.661V232.024C245.917 232.024 237.683 240.259 237.683 250.416H260.319ZM256.075 254.661C253.731 254.661 251.831 252.76 251.831 250.416H274.467C274.467 240.259 266.233 232.024 256.075 232.024V254.661Z" fill="#BAC7FF" mask="url(#path-7-inside-2_182_1116)"/>
<mask id="path-9-inside-3_182_1116" fill="white">
<ellipse cx="298.518" cy="270.223" rx="7.07389" ry="7.07389"/>
</mask>
<ellipse cx="298.518" cy="270.223" rx="7.07389" ry="7.07389" fill="#BAC7FF"/>
<path d="M294.274 270.223C294.274 267.879 296.174 265.979 298.518 265.979V288.615C308.676 288.615 316.911 280.381 316.911 270.223H294.274ZM298.518 265.979C300.863 265.979 302.763 267.879 302.763 270.223H280.126C280.126 280.381 288.361 288.615 298.518 288.615V265.979ZM302.763 270.223C302.763 272.567 300.863 274.467 298.518 274.467V251.831C288.361 251.831 280.126 260.065 280.126 270.223H302.763ZM298.518 274.467C296.174 274.467 294.274 272.567 294.274 270.223H316.911C316.911 260.065 308.676 251.831 298.518 251.831V274.467Z" fill="#BAC7FF" mask="url(#path-9-inside-3_182_1116)"/>
<mask id="path-11-inside-4_182_1116" fill="white">
<ellipse cx="227.779" cy="207.973" rx="7.07389" ry="7.07389"/>
</mask>
<ellipse cx="227.779" cy="207.973" rx="7.07389" ry="7.07389" fill="#BAC7FF"/>
<path d="M223.535 207.973C223.535 205.629 225.435 203.728 227.779 203.728V226.365C237.937 226.365 246.171 218.13 246.171 207.973H223.535ZM227.779 203.728C230.123 203.728 232.024 205.629 232.024 207.973H209.387C209.387 218.13 217.622 226.365 227.779 226.365V203.728ZM232.024 207.973C232.024 210.317 230.123 212.217 227.779 212.217V189.581C217.622 189.581 209.387 197.815 209.387 207.973H232.024ZM227.779 212.217C225.435 212.217 223.535 210.317 223.535 207.973H246.171C246.171 197.815 237.937 189.581 227.779 189.581V212.217Z" fill="#BAC7FF" mask="url(#path-11-inside-4_182_1116)"/>
<mask id="path-13-inside-5_182_1116" fill="white">
<ellipse cx="321.155" cy="224.95" rx="7.07389" ry="7.07389"/>
</mask>
<ellipse cx="321.155" cy="224.95" rx="7.07389" ry="7.07389" fill="#BAC7FF"/>
<path d="M316.911 224.95C316.911 222.606 318.811 220.706 321.155 220.706V243.342C331.313 243.342 339.547 235.108 339.547 224.95H316.911ZM321.155 220.706C323.499 220.706 325.399 222.606 325.399 224.95H302.763C302.763 235.108 310.997 243.342 321.155 243.342V220.706ZM325.399 224.95C325.399 227.294 323.499 229.194 321.155 229.194V206.558C310.997 206.558 302.763 214.792 302.763 224.95H325.399ZM321.155 229.194C318.811 229.194 316.911 227.294 316.911 224.95H339.547C339.547 214.792 331.313 206.558 321.155 206.558V229.194Z" fill="#BAC7FF" mask="url(#path-13-inside-5_182_1116)"/>
<path d="M251.831 174.018C251.831 176.362 249.93 178.262 247.586 178.262C245.242 178.262 243.342 176.362 243.342 174.018C243.342 171.674 245.242 169.774 247.586 169.774C249.93 169.774 251.831 171.674 251.831 174.018Z" fill="#BAC7FF" stroke="#BAC7FF" stroke-width="5.65912"/>
<ellipse cx="267.393" cy="111.768" rx="7.07389" ry="7.07389" fill="#BAC7FF"/>
<path d="M229.817 147.364H270.166" stroke="#BAC7FF" stroke-width="5.65912"/>
<line x1="267.336" y1="147.364" x2="267.336" y2="115.347" stroke="#BAC7FF" stroke-width="5.65912"/>
<line x1="253.939" y1="173.919" x2="297.358" y2="173.919" stroke="#BAC7FF" stroke-width="5.65912"/>
<line x1="229.798" y1="207.052" x2="302.664" y2="206.921" stroke="#BAC7FF" stroke-width="5.65912"/>
<line x1="299.933" y1="226.388" x2="299.792" y2="209.227" stroke="#BAC7FF" stroke-width="5.65912"/>
<line x1="299.933" y1="223.535" x2="317.915" y2="223.535" stroke="#BAC7FF" stroke-width="5.65912"/>
<line x1="256.33" y1="254.816" x2="256.33" y2="272.359" stroke="#BAC7FF" stroke-width="5.65912"/>
<line x1="253.5" y1="269.53" x2="303.06" y2="269.53" stroke="#BAC7FF" stroke-width="5.65912"/>
</svg>
